<svg width="28" height="27" viewBox="0 0 28 27" fill="none" xmlns="http://www.w3.org/2000/svg">
<path d="M2.50098 10.9939C2.50098 12.0969 3.39791 12.9939 4.50098 12.9939C5.60398 12.9939 6.50098 12.0969 6.50098 10.9939C6.50098 10.7175 6.27754 10.4939 6.00098 10.4939C5.7246 10.4939 5.50098 10.7175 5.50098 10.9939C5.50098 11.5454 5.05254 11.9939 4.50098 11.9939C3.94941 11.9939 3.50098 11.5454 3.50098 10.9939C3.50098 10.7175 3.27754 10.4939 3.00098 10.4939C2.7246 10.4939 2.50098 10.7175 2.50098 10.9939Z" fill="#FFC700"/>
<path d="M14.0006 23.0071C12.6246 23.0071 11.5057 21.8879 11.5057 20.5119C11.5057 20.2356 11.7291 20.0119 12.0057 20.0119C12.2821 20.0119 12.5057 20.2356 12.5057 20.5119C12.5057 21.3359 13.1766 22.0071 14.0006 22.0071C14.8245 22.0071 15.4957 21.3359 15.4957 20.5119C15.4957 20.2356 15.7191 20.0119 15.9957 20.0119C16.2721 20.0119 16.4957 20.2356 16.4957 20.5119C16.4957 21.8879 15.3765 23.0071 14.0006 23.0071Z" fill="#FFC700"/>
<path d="M14.0006 26.5061C13.7242 26.5061 13.5006 26.2825 13.5006 26.0061V24.5061C13.5006 24.2295 13.7242 24.0061 14.0006 24.0061C14.2772 24.0061 14.5006 24.2295 14.5006 24.5061V26.0061C14.5006 26.2825 14.2772 26.5061 14.0006 26.5061Z" fill="#FFC700"/>
<path d="M10.4701 25.0325C10.4044 25.0325 10.3394 25.0196 10.2787 24.9945C10.218 24.9693 10.1629 24.9325 10.1165 24.886C9.92096 24.6909 9.92096 24.3745 10.1165 24.1789L11.1761 23.1184C11.2225 23.072 11.2776 23.0352 11.3383 23.01C11.3989 22.9849 11.464 22.9719 11.5296 22.9719C11.5953 22.9719 11.6603 22.9849 11.721 23.01C11.7816 23.0352 11.8367 23.072 11.8831 23.1184C12.0787 23.3134 12.0787 23.6299 11.8831 23.8254L10.8236 24.886C10.7772 24.9325 10.7221 24.9693 10.6614 24.9945C10.6008 25.0196 10.5357 25.0325 10.4701 25.0325Z" fill="#FFC700"/>
<path d="M17.5306 25.0625C17.4649 25.0625 17.3999 25.0496 17.3392 25.0245C17.2786 24.9993 17.2235 24.9625 17.1771 24.916L16.1165 23.8554C16.07 23.8091 16.0331 23.754 16.008 23.6933C15.9828 23.6326 15.9699 23.5676 15.9699 23.5019C15.9699 23.4363 15.9828 23.3712 16.008 23.3106C16.0331 23.2499 16.07 23.1948 16.1165 23.1484C16.1629 23.1019 16.218 23.0651 16.2787 23.0399C16.3393 23.0147 16.4044 23.0018 16.4701 23.0018C16.5357 23.0018 16.6008 23.0147 16.6614 23.0399C16.7221 23.0651 16.7772 23.1019 16.8236 23.1484L17.8841 24.209C17.9306 24.2554 17.9675 24.3105 17.9927 24.3711C18.0178 24.4318 18.0308 24.4968 18.0308 24.5625C18.0308 24.6282 18.0178 24.6932 17.9927 24.7539C17.9675 24.8145 17.9306 24.8696 17.8841 24.916C17.7903 25.0097 17.6632 25.0624 17.5306 25.0625Z" fill="#FFC700"/>
<path d="M23.498 12.9939C22.395 12.9939 21.498 12.0969 21.498 10.9939C21.498 10.7175 21.7214 10.4939 21.998 10.4939C22.2744 10.4939 22.498 10.7175 22.498 10.9939C22.498 11.5454 22.9465 11.9939 23.498 11.9939C24.0495 11.9939 24.498 11.5454 24.498 10.9939C24.498 10.7175 24.7214 10.4939 24.998 10.4939C25.2744 10.4939 25.498 10.7175 25.498 10.9939C25.498 12.0969 24.601 12.9939 23.498 12.9939Z" fill="#FFC700"/>
<path d="M13.992 12.501C13.9743 12.501 13.9568 12.5001 13.9396 12.4983C13.6879 12.4722 13.492 12.2599 13.492 12.001V-1.5C13.492 -1.77663 13.7156 -2 13.992 -2C14.2686 -2 14.492 -1.77663 14.492 -1.5V12.001C14.492 12.2599 14.2962 12.4723 14.0443 12.4983C14.0271 12.5001 14.0096 12.501 13.992 12.501ZM4.50146 6.49512C4.22515 6.49512 4.00146 6.2715 4.00146 5.99512V2.24756V-1.5C4.00146 -1.77663 4.22515 -2 4.50146 -2C4.77809 -2 5.00146 -1.77663 5.00146 -1.5V5.99512C5.00146 6.2715 4.77809 6.49512 4.50146 6.49512ZM19.9995 21.0061H8.00003C7.7234 21.0061 7.50003 20.7825 7.50003 20.5061C7.50003 20.2295 7.7234 20.0061 8.00003 20.0061H8.50003H19.5H19.9995C20.2759 20.0061 20.4995 20.2295 20.4995 20.5061C20.4995 20.7825 20.2759 21.0061 19.9995 21.0061Z" fill="#800000"/>
<path d="M27.4986 10.4951C27.222 10.4951 26.9986 10.2715 26.9986 9.99512C26.9986 8.06544 25.428 6.49512 23.4986 6.49512C21.5691 6.49512 19.9986 8.06544 19.9986 9.99512C19.9986 10.2715 19.7749 10.4951 19.4986 10.4951C19.222 10.4951 18.9986 10.2715 18.9986 9.99512C18.9986 7.51344 21.0171 5.49512 23.4986 5.49512C25.98 5.49512 27.9986 7.51344 27.9986 9.99512C27.9986 10.2715 27.7749 10.4951 27.4986 10.4951ZM19.9915 18.4981C19.7468 18.4981 19.5435 18.3228 19.5 18.0908C19.4944 18.0608 19.4915 18.0298 19.4915 17.9981C19.4915 14.9832 17.0525 12.5268 14.0443 12.4983C14.0267 12.4981 14.0091 12.4981 13.9915 12.4981C13.9742 12.4981 13.9569 12.4981 13.9396 12.4983C10.9587 12.526 8.53667 14.9376 8.49208 17.9145C8.49166 17.9423 8.49146 17.9701 8.49146 17.9981C8.49146 18.2744 8.26808 18.4981 7.99146 18.4981C7.71508 18.4981 7.49146 18.2744 7.49146 17.9981C7.49146 14.4141 10.4075 11.4981 13.9915 11.4981C17.5754 11.4981 20.4915 14.4141 20.4915 17.9981C20.4915 18.2744 20.2681 18.4981 19.9915 18.4981ZM27.4986 11.4961H19.4986C19.222 11.4961 18.9986 11.2724 18.9986 10.9961C18.9986 10.7195 19.222 10.4961 19.4986 10.4961H19.9986H26.9986H27.4986C27.7749 10.4961 27.9986 10.7195 27.9986 10.9961C27.9986 11.2724 27.7749 11.4961 27.4986 11.4961Z" fill="#800000"/>
<path d="M8.00003 21.0061C7.7234 21.0061 7.50003 20.7825 7.50003 20.5061L7.50003 18.0039C7.50003 17.7276 7.7234 17.5039 8.00003 17.5039C8.2461 17.5039 8.45003 17.6809 8.49208 17.9145C8.4973 17.9435 8.50003 17.9734 8.50003 18.0039V20.0061V20.5061C8.50003 20.7825 8.27665 21.0061 8.00003 21.0061ZM19.9995 21.0061C19.7229 21.0061 19.5 20.7825 19.5 20.5061V20.0061V18.0908V18.0029C19.5 17.7266 19.7234 17.5029 20 17.5029C20.2767 17.5029 20.5 17.7266 20.5 18.0029L20.4995 20.5061C20.4995 20.7825 20.2759 21.0061 19.9995 21.0061ZM8.50146 10.4951C8.22515 10.4951 8.00146 10.2715 8.00146 9.99512C8.00146 8.06544 6.43096 6.49512 4.50146 6.49512C2.57209 6.49512 1.00146 8.06544 1.00146 9.99512C1.00146 10.2715 0.77809 10.4951 0.501465 10.4951C0.225152 10.4951 0.00146484 10.2715 0.00146484 9.99512C0.00146484 7.51344 2.02003 5.49512 4.50146 5.49512C6.98296 5.49512 9.00146 7.51344 9.00146 9.99512C9.00146 10.2715 8.77809 10.4951 8.50146 10.4951ZM8.50146 11.4961H0.501465C0.225152 11.4961 0.00146484 11.2724 0.00146484 10.9961C0.00146484 10.7195 0.225152 10.4961 0.501465 10.4961H1.00146H8.00146H8.50146C8.77809 10.4961 9.00146 10.7195 9.00146 10.9961C9.00146 11.2724 8.77809 11.4961 8.50146 11.4961Z" fill="#800000"/>
<path d="M0.00146484 10.9961C0.00146484 11.2724 0.225152 11.4961 0.501465 11.4961C0.77809 11.4961 1.00146 11.2724 1.00146 10.9961V10.4961V9.99512C1.00146 9.7185 0.77809 9.49512 0.501465 9.49512C0.225152 9.49512 0.00146484 9.7185 0.00146484 9.99512V10.9961Z" fill="#800000"/>
<path d="M8.00146 10.9961C8.00146 11.2724 8.22515 11.4961 8.50146 11.4961C8.77809 11.4961 9.00146 11.2724 9.00146 10.9961V9.99512C9.00146 9.7185 8.77809 9.49512 8.50146 9.49512C8.22515 9.49512 8.00146 9.7185 8.00146 9.99512V10.4961V10.9961Z" fill="#800000"/>
<path d="M18.9986 10.9961C18.9986 11.2724 19.222 11.4961 19.4986 11.4961C19.7749 11.4961 19.9986 11.2724 19.9986 10.9961L19.9986 10.4961L19.9986 9.99512C19.9986 9.7185 19.7749 9.49512 19.4986 9.49512C19.222 9.49512 18.9986 9.7185 18.9986 9.99512V10.9961Z" fill="#800000"/>
<path d="M26.9986 10.9961C26.9986 11.2724 27.222 11.4961 27.4986 11.4961C27.7749 11.4961 27.9986 11.2724 27.9986 10.9961V9.99512C27.9986 9.7185 27.7749 9.49512 27.4986 9.49512C27.222 9.49512 26.9986 9.7185 26.9986 9.99512L26.9986 10.4961L26.9986 10.9961Z" fill="#800000"/>
<path d="M8.00146 9.99512C8.00146 8.06544 6.43096 6.49512 4.50146 6.49512C2.57209 6.49512 1.00146 8.06544 1.00146 9.99512V10.4961H8.00146V9.99512Z" fill="#800000"/>
<path d="M13.992 12.501C13.9743 12.501 13.9568 12.5001 13.9396 12.4983C10.9587 12.526 8.53667 14.9376 8.49208 17.9145C8.4973 17.9435 8.50003 17.9734 8.50003 18.0039V20.0061H19.5V18.0908C19.4944 18.0608 19.4915 18.0298 19.4915 17.9981C19.4915 14.9832 17.0525 12.5268 14.0443 12.4983C14.0271 12.5001 14.0096 12.501 13.992 12.501Z" fill="#800000"/>
<path d="M26.9986 9.99512C26.9986 8.06544 25.428 6.49512 23.4986 6.49512C21.5691 6.49512 19.9986 8.06544 19.9986 9.99512L19.9986 10.4961H26.9986L26.9986 9.99512Z" fill="#800000"/>
<path d="M23.4986 6.49512C23.222 6.49512 22.9985 6.2715 22.9985 5.99512V-1.5C22.9985 -1.77663 23.2219 -2 23.4985 -2C23.7748 -2 23.9985 -1.77663 23.9985 -1.5V5.99512C23.9985 6.2715 23.7749 6.49512 23.4986 6.49512Z" fill="#800000"/>
</svg>
